<?xml version="1.0" encoding="UTF-8"?>
<svg xmlns="http://www.w3.org/2000/svg" xmlns:xlink="http://www.w3.org/1999/xlink" width="64px" height="64px" viewBox="0 0 64 64" version="1.1">
<g id="surface1">
<path style=" stroke:none;fill-rule:nonzero;fill:rgb(63.137255%,47.45098%,86.27451%);fill-opacity:1;" d="M 63.714844 18.945312 C 63.714844 17.878906 63.457031 16.9375 62.941406 16.128906 C 62.429688 15.335938 61.667969 14.671875 60.644531 14.144531 C 52.199219 9.816406 43.746094 5.5 35.304688 1.167969 C 33.027344 0 30.820312 0.0429688 28.5625 1.226562 C 25.199219 2.988281 8.371094 11.558594 3.355469 14.140625 C 1.289062 15.203125 0.285156 16.832031 0.285156 18.945312 C 0.28125 27.648438 0.285156 36.351562 0.28125 45.054688 C 0.28125 46.097656 0.527344 47.023438 1.023438 47.816406 C 1.53125 48.636719 2.304688 49.320312 3.351562 49.859375 C 8.367188 52.441406 25.199219 61.011719 28.5625 62.773438 C 30.820312 63.957031 33.027344 64 35.304688 62.832031 C 43.746094 58.5 52.203125 54.183594 60.648438 49.855469 C 61.695312 49.316406 62.46875 48.632812 62.976562 47.816406 C 63.472656 47.019531 63.71875 46.097656 63.71875 45.054688 C 63.71875 45.054688 63.71875 27.648438 63.714844 18.945312 "/>
<path style=" stroke:none;fill-rule:nonzero;fill:rgb(15.686275%,0%,40.784314%);fill-opacity:1;" d="M 32.097656 31.914062 L 1.023438 47.816406 C 1.53125 48.636719 2.304688 49.320312 3.351562 49.859375 C 8.367188 52.441406 25.199219 61.011719 28.5625 62.773438 C 30.820312 63.957031 33.027344 64 35.304688 62.832031 C 43.746094 58.5 52.203125 54.183594 60.648438 49.855469 C 61.695312 49.316406 62.46875 48.632812 62.976562 47.816406 Z M 32.097656 31.914062 "/>
<path style=" stroke:none;fill-rule:nonzero;fill:rgb(22.352941%,0%,56.862745%);fill-opacity:1;" d="M 63.714844 18.945312 C 63.714844 17.878906 63.457031 16.9375 62.941406 16.128906 L 32.097656 31.914062 L 62.976562 47.816406 C 63.472656 47.019531 63.71875 46.097656 63.71875 45.054688 C 63.71875 45.054688 63.71875 27.648438 63.714844 18.945312 "/>
<path style=" stroke:none;fill-rule:nonzero;fill:rgb(100%,100%,100%);fill-opacity:1;" d="M 50.390625 25.96875 L 50.390625 28.941406 L 53.738281 28.941406 L 53.738281 25.96875 L 55.410156 25.96875 L 55.410156 28.941406 L 58.753906 28.941406 L 58.753906 30.429688 L 55.410156 30.429688 L 55.410156 33.402344 L 58.753906 33.402344 L 58.753906 34.886719 L 55.410156 34.886719 L 55.410156 37.859375 L 53.738281 37.859375 L 53.738281 34.886719 L 50.390625 34.886719 L 50.390625 37.859375 L 48.71875 37.859375 L 48.71875 34.886719 L 45.375 34.886719 L 45.375 33.402344 L 48.71875 33.402344 L 48.71875 30.429688 L 45.375 30.429688 L 45.375 28.941406 L 48.71875 28.941406 L 48.71875 25.96875 Z M 53.738281 30.429688 L 50.390625 30.429688 L 50.390625 33.402344 L 53.738281 33.402344 Z M 53.738281 30.429688 "/>
<path style=" stroke:none;fill-rule:nonzero;fill:rgb(100%,100%,100%);fill-opacity:1;" d="M 32.164062 11.042969 C 40.886719 11.042969 48.503906 15.253906 52.582031 21.511719 L 52.542969 21.453125 L 42.28125 26.703125 C 40.257812 23.660156 36.550781 21.605469 32.300781 21.566406 L 32.164062 21.5625 C 25.679688 21.5625 20.421875 26.238281 20.421875 32 C 20.421875 33.816406 20.957031 35.601562 21.972656 37.175781 C 23.996094 40.316406 27.800781 42.4375 32.164062 42.4375 C 36.558594 42.4375 40.382812 40.289062 42.398438 37.117188 L 42.347656 37.191406 L 52.59375 42.46875 C 48.5625 48.675781 41.050781 52.871094 32.429688 52.957031 L 32.164062 52.957031 C 23.414062 52.957031 15.777344 48.722656 11.707031 42.429688 C 9.722656 39.359375 8.585938 35.796875 8.585938 32 C 8.585938 20.425781 19.140625 11.042969 32.164062 11.042969 Z M 32.164062 11.042969 "/>
</g>
</svg>
