<?xml version="1.0" encoding="UTF-8"?>
<svg xmlns="http://www.w3.org/2000/svg" xmlns:xlink="http://www.w3.org/1999/xlink" width="64px" height="64px" viewBox="0 0 64 64" version="1.1">
<g id="surface1">
<path style=" stroke:none;fill-rule:nonzero;fill:rgb(4.313725%,34.901961%,45.882353%);fill-opacity:1;" d="M 7.890625 32 C 7.890625 45.316406 18.683594 56.109375 32 56.109375 C 45.316406 56.109375 56.109375 45.316406 56.109375 32 C 56.109375 18.683594 45.316406 7.890625 32 7.890625 C 18.683594 7.890625 7.890625 18.683594 7.890625 32 Z M 7.890625 32 "/>
<path style=" stroke:none;fill-rule:nonzero;fill:rgb(20.784314%,20.784314%,20.784314%);fill-opacity:1;" d="M 26.25 35.316406 C 26.25 36.238281 26.183594 36.894531 26.050781 37.292969 C 25.910156 37.703125 25.683594 38.082031 25.386719 38.402344 C 25.074219 38.746094 24.636719 38.992188 24.078125 39.136719 C 23.515625 39.285156 22.84375 39.363281 22.066406 39.363281 C 21.222656 39.363281 20.53125 39.285156 19.984375 39.128906 C 19.4375 38.972656 19.007812 38.707031 18.6875 38.332031 C 18.359375 37.945312 18.121094 37.496094 17.984375 37.011719 C 17.835938 36.503906 17.765625 35.695312 17.765625 34.589844 L 17.765625 33.980469 L 21.269531 33.980469 L 21.269531 35.476562 C 21.269531 36.023438 21.304688 36.398438 21.375 36.601562 C 21.445312 36.804688 21.628906 36.90625 21.925781 36.90625 C 22.421875 36.90625 22.671875 36.46875 22.671875 35.597656 C 22.671875 35.035156 22.640625 34.613281 22.578125 34.332031 C 22.515625 34.054688 22.332031 33.757812 22.019531 33.445312 C 20.566406 32.398438 19.570312 31.621094 19.027344 31.105469 C 18.105469 30.25 17.644531 28.988281 17.644531 27.320312 C 17.644531 26.726562 17.683594 26.210938 17.75 25.773438 C 17.820312 25.339844 17.964844 24.925781 18.183594 24.535156 C 18.480469 24.035156 18.945312 23.664062 19.496094 23.484375 C 20.054688 23.296875 20.804688 23.203125 21.738281 23.203125 C 22.644531 23.203125 23.355469 23.257812 23.878906 23.367188 C 24.398438 23.476562 24.832031 23.71875 25.175781 24.089844 C 25.519531 24.464844 25.746094 24.941406 25.855469 25.519531 C 25.917969 25.863281 25.945312 26.492188 25.945312 27.414062 L 25.945312 27.621094 L 22.464844 27.621094 L 22.464844 26.898438 C 22.464844 26.476562 22.457031 26.21875 22.441406 26.125 C 22.378906 25.769531 22.1875 25.585938 21.859375 25.585938 C 21.40625 25.585938 21.179688 26.007812 21.179688 26.851562 C 21.179688 27.503906 21.285156 27.972656 21.496094 28.253906 C 21.707031 28.535156 22.355469 29.027344 23.449219 29.726562 C 24.648438 30.492188 25.4375 31.300781 25.808594 32.160156 C 26.105469 32.828125 26.25 33.882812 26.25 35.316406 Z M 37.429688 41.253906 L 34.296875 41.253906 C 33.21875 41.253906 32.535156 41.109375 32.238281 40.8125 C 32.003906 40.578125 31.886719 40.070312 31.886719 39.289062 C 31.492188 39.289062 31.101562 39.242188 30.71875 39.148438 C 30.316406 39.042969 29.9375 38.871094 29.597656 38.632812 C 28.769531 38.105469 28.238281 37.402344 28.003906 36.53125 C 27.847656 35.953125 27.773438 34.941406 27.773438 33.492188 L 27.773438 28.511719 C 27.773438 27.8125 27.789062 27.238281 27.832031 26.792969 C 27.867188 26.359375 27.957031 25.929688 28.101562 25.519531 C 28.410156 24.707031 28.9375 24.117188 29.679688 23.753906 C 30.417969 23.386719 31.335938 23.203125 32.421875 23.203125 C 33.71875 23.203125 34.769531 23.417969 35.582031 23.847656 C 36.390625 24.273438 36.9375 24.941406 37.21875 25.847656 C 37.328125 26.175781 37.386719 26.613281 37.40625 27.167969 C 37.417969 27.71875 37.429688 28.136719 37.429688 28.417969 L 37.429688 33.65625 C 37.429688 34.964844 37.375 35.871094 37.261719 36.371094 C 37.03125 37.441406 36.230469 38.144531 34.855469 38.472656 C 34.855469 38.863281 34.925781 39.097656 35.066406 39.175781 C 35.207031 39.253906 35.519531 39.289062 36 39.289062 L 37.429688 39.289062 Z M 33.242188 35.316406 L 33.242188 26.96875 C 33.242188 26.484375 33.207031 26.136719 33.125 25.917969 C 33.050781 25.699219 32.875 25.589844 32.609375 25.589844 C 32.316406 25.589844 32.132812 25.707031 32.0625 25.941406 C 31.992188 26.171875 31.957031 26.640625 31.957031 27.34375 L 31.957031 35.597656 C 31.957031 36.019531 31.996094 36.34375 32.074219 36.582031 C 32.152344 36.8125 32.324219 36.929688 32.589844 36.929688 C 33.023438 36.929688 33.242188 36.390625 33.242188 35.316406 Z M 47.109375 39.289062 L 39.136719 39.289062 L 39.136719 23.203125 L 43.320312 23.203125 L 43.320312 36.085938 L 47.109375 36.085938 Z M 47.109375 39.289062 "/>
<path style=" stroke:none;fill-rule:nonzero;fill:rgb(100%,100%,100%);fill-opacity:1;" d="M 26.25 35.085938 C 26.25 36.007812 26.183594 36.664062 26.050781 37.0625 C 25.910156 37.472656 25.683594 37.851562 25.386719 38.171875 C 25.074219 38.515625 24.636719 38.761719 24.078125 38.910156 C 23.515625 39.054688 22.84375 39.132812 22.066406 39.132812 C 21.222656 39.132812 20.53125 39.054688 19.984375 38.898438 C 19.4375 38.742188 19.007812 38.476562 18.6875 38.101562 C 18.359375 37.714844 18.121094 37.265625 17.984375 36.78125 C 17.835938 36.277344 17.765625 35.46875 17.765625 34.359375 L 17.765625 33.753906 L 21.269531 33.753906 L 21.269531 35.25 C 21.269531 35.796875 21.304688 36.167969 21.375 36.371094 C 21.445312 36.574219 21.628906 36.675781 21.925781 36.675781 C 22.421875 36.675781 22.671875 36.238281 22.671875 35.367188 C 22.671875 34.804688 22.640625 34.382812 22.578125 34.101562 C 22.515625 33.824219 22.332031 33.527344 22.019531 33.214844 C 20.566406 32.167969 19.570312 31.390625 19.027344 30.878906 C 18.105469 30.019531 17.644531 28.757812 17.644531 27.089844 C 17.644531 26.496094 17.683594 25.984375 17.75 25.546875 C 17.820312 25.109375 17.964844 24.695312 18.183594 24.304688 C 18.480469 23.804688 18.945312 23.433594 19.496094 23.253906 C 20.054688 23.066406 20.804688 22.972656 21.738281 22.972656 C 22.644531 22.972656 23.355469 23.027344 23.878906 23.136719 C 24.398438 23.246094 24.832031 23.488281 25.175781 23.863281 C 25.519531 24.234375 25.746094 24.710938 25.855469 25.289062 C 25.917969 25.632812 25.945312 26.261719 25.945312 27.183594 L 25.945312 27.394531 L 22.464844 27.394531 L 22.464844 26.667969 C 22.464844 26.246094 22.457031 25.988281 22.441406 25.898438 C 22.378906 25.539062 22.1875 25.359375 21.859375 25.359375 C 21.40625 25.359375 21.179688 25.777344 21.179688 26.621094 C 21.179688 27.273438 21.285156 27.742188 21.496094 28.023438 C 21.707031 28.304688 22.355469 28.796875 23.449219 29.496094 C 24.648438 30.261719 25.4375 31.070312 25.808594 31.929688 C 26.105469 32.601562 26.25 33.652344 26.25 35.085938 Z M 37.429688 41.027344 L 34.296875 41.027344 C 33.21875 41.027344 32.535156 40.878906 32.238281 40.582031 C 32.003906 40.347656 31.886719 39.839844 31.886719 39.058594 C 31.492188 39.0625 31.101562 39.015625 30.71875 38.921875 C 30.316406 38.816406 29.9375 38.640625 29.597656 38.40625 C 28.769531 37.875 28.238281 37.175781 28.003906 36.300781 C 27.847656 35.726562 27.773438 34.710938 27.773438 33.261719 L 27.773438 28.28125 C 27.773438 27.582031 27.789062 27.007812 27.832031 26.5625 C 27.867188 26.128906 27.957031 25.703125 28.101562 25.289062 C 28.410156 24.480469 28.9375 23.890625 29.679688 23.523438 C 30.417969 23.15625 31.335938 22.972656 32.421875 22.972656 C 33.71875 22.972656 34.769531 23.1875 35.582031 23.617188 C 36.390625 24.046875 36.9375 24.714844 37.21875 25.617188 C 37.328125 25.945312 37.386719 26.382812 37.40625 26.9375 C 37.417969 27.492188 37.429688 27.90625 37.429688 28.191406 L 37.429688 33.429688 C 37.429688 34.738281 37.375 35.640625 37.261719 36.140625 C 37.03125 37.214844 36.230469 37.917969 34.855469 38.246094 C 34.855469 38.632812 34.925781 38.867188 35.066406 38.945312 C 35.207031 39.023438 35.519531 39.0625 36 39.0625 L 37.429688 39.0625 Z M 33.242188 35.085938 L 33.242188 26.738281 C 33.242188 26.253906 33.207031 25.90625 33.125 25.6875 C 33.050781 25.46875 32.875 25.359375 32.609375 25.359375 C 32.316406 25.359375 32.132812 25.476562 32.0625 25.710938 C 31.992188 25.945312 31.957031 26.410156 31.957031 27.113281 L 31.957031 35.367188 C 31.957031 35.789062 31.996094 36.113281 32.074219 36.351562 C 32.152344 36.582031 32.324219 36.699219 32.589844 36.699219 C 33.023438 36.699219 33.242188 36.164062 33.242188 35.085938 Z M 47.109375 39.058594 L 39.136719 39.058594 L 39.136719 22.972656 L 43.320312 22.972656 L 43.320312 35.855469 L 47.109375 35.855469 Z M 47.109375 39.058594 "/>
</g>
</svg>
